<?xml version="1.0" standalone="no"?>
<!DOCTYPE svg PUBLIC "-//W3C//DTD SVG 20010904//EN"
 "http://www.w3.org/TR/2001/REC-SVG-20010904/DTD/svg10.dtd">
<svg version="1.0" xmlns="http://www.w3.org/2000/svg"
 width="1000.000000pt" height="1000.000000pt" viewBox="0 0 1000.000000 1000.000000"
 preserveAspectRatio="xMidYMid meet">
<metadata>
Created by potrace 1.14, written by Peter Selinger 2001-2017
</metadata>
<g transform="translate(0.000000,1000.000000) scale(0.100000,-0.100000)"
fill="#000000" stroke="none">
<path d="M1380 9989 c-522 -58 -981 -381 -1219 -857 -74 -148 -131 -348 -151
-524 -14 -135 -14 -7081 0 -7216 46 -424 259 -805 595 -1066 225 -175 497
-284 787 -316 135 -14 7081 -14 7216 0 290 32 562 141 787 316 91 70 230 211
296 299 162 215 269 490 299 767 14 135 14 7081 0 7216 -32 290 -141 562 -316
787 -70 91 -211 230 -299 296 -215 162 -490 269 -767 299 -119 12 -7113 12
-7228 -1z m2667 -1529 c214 -37 362 -88 535 -186 180 -102 363 -256 504 -425
l66 -79 106 95 c287 253 529 406 802 505 540 197 1163 127 1644 -184 230 -149
445 -374 584 -612 110 -188 195 -432 232 -660 29 -179 29 -484 -1 -661 -54
-328 -212 -733 -426 -1096 -325 -551 -762 -1099 -1416 -1777 -659 -682 -1762
-1651 -2041 -1792 -162 -82 -377 -91 -546 -22 -131 53 -222 130 -463 393 -687
749 -1315 1642 -1692 2406 -326 663 -477 1213 -476 1740 0 332 49 578 173 880
149 360 377 672 686 937 316 270 694 453 1078 522 186 34 176 33 366 35 126 1
194 -4 285 -19z"/>
<path d="M3680 7814 c-382 -34 -738 -202 -1026 -483 -259 -253 -426 -554 -506
-912 -20 -90 -23 -131 -23 -309 0 -228 10 -315 60 -526 191 -804 745 -1763
1649 -2854 104 -125 365 -416 438 -488 l65 -63 64 47 c217 160 799 656 1129
963 1361 1269 2153 2327 2322 3106 18 84 22 133 22 300 1 187 -1 207 -28 310
-122 477 -457 801 -923 889 -328 62 -605 4 -925 -195 -302 -187 -655 -576
-908 -1004 -77 -129 -71 -127 -92 -43 -124 484 -386 908 -682 1106 -177 119
-411 176 -636 156z"/>
</g>
</svg>
