<?xml version="1.0" encoding="UTF-8" standalone="no"?><!-- Generator: Gravit.io --><svg xmlns="http://www.w3.org/2000/svg" xmlns:xlink="http://www.w3.org/1999/xlink" style="isolation:isolate" viewBox="0 0 1000 200" width="1000pt" height="200pt"><defs><clipPath id="_clipPath_clvPp03fLuVgt53lZQMOMDxg64IvuKVb"><rect width="1000" height="200"/></clipPath></defs><g clip-path="url(#_clipPath_clvPp03fLuVgt53lZQMOMDxg64IvuKVb)"><g><path d=" M 252.355 171.911 L 238.953 171.911 L 238.953 99.772 L 261.082 99.772 L 261.082 99.772 Q 272.613 99.772 280.82 105.13 L 280.82 105.13 L 280.82 105.13 Q 289.028 110.487 289.028 122.899 L 289.028 122.899 L 289.028 122.899 Q 289.028 135.205 280.197 140.987 L 280.197 140.987 L 280.197 140.987 Q 271.367 146.769 260.147 146.769 L 260.147 146.769 L 252.355 146.769 L 252.355 171.911 L 252.355 171.911 Z  M 260.666 111.23 L 260.666 111.23 L 252.355 111.23 L 252.355 135.417 L 260.874 135.417 L 260.874 135.417 Q 266.899 135.417 270.639 132.606 L 270.639 132.606 L 270.639 132.606 Q 274.379 129.795 274.795 123.748 L 274.795 123.748 L 274.795 123.748 Q 274.795 116.746 271.055 113.988 L 271.055 113.988 L 271.055 113.988 Q 267.315 111.23 260.666 111.23 Z  M 323.726 111.23 L 323.726 111.23 L 315.415 111.23 L 315.415 133.296 L 323.934 133.296 L 323.934 133.296 Q 329.96 133.296 333.907 130.803 L 333.907 130.803 L 333.907 130.803 Q 337.855 128.31 337.855 122.581 L 337.855 122.581 L 337.855 122.581 Q 337.855 116.534 334.115 113.882 L 334.115 113.882 L 334.115 113.882 Q 330.375 111.23 323.726 111.23 Z  M 357.386 171.911 L 343.05 171.911 L 328.09 144.329 L 328.09 144.329 Q 326.947 144.435 325.7 144.488 L 325.7 144.488 L 325.7 144.488 Q 324.454 144.541 323.207 144.541 L 323.207 144.541 L 315.415 144.541 L 315.415 171.911 L 302.014 171.911 L 302.014 99.772 L 324.142 99.772 L 324.142 99.772 Q 335.673 99.772 343.881 105.183 L 343.881 105.183 L 343.881 105.183 Q 352.088 110.593 352.088 121.944 L 352.088 121.944 L 352.088 121.944 Q 352.088 128.628 348.711 133.455 L 348.711 133.455 L 348.711 133.455 Q 345.335 138.282 340.037 140.934 L 340.037 140.934 L 357.386 171.911 L 357.386 171.911 Z  M 364.347 136.16 L 364.347 136.16 L 364.347 136.16 Q 364.347 119.504 372.866 108.949 L 372.866 108.949 L 372.866 108.949 Q 381.384 98.393 396.864 98.075 L 396.864 98.075 L 396.864 98.075 Q 413.486 98.075 421.485 109.002 L 421.485 109.002 L 421.485 109.002 Q 429.485 119.929 429.485 135.417 L 429.485 135.417 L 429.485 135.417 Q 429.485 152.179 420.914 162.788 L 420.914 162.788 L 420.914 162.788 Q 412.343 173.397 396.864 173.397 L 396.864 173.397 L 396.864 173.397 Q 380.345 173.397 372.346 162.523 L 372.346 162.523 L 372.346 162.523 Q 364.347 151.649 364.347 136.16 Z  M 378.372 136.054 L 378.372 136.054 L 378.372 136.054 Q 378.372 147.405 382.839 154.619 L 382.839 154.619 L 382.839 154.619 Q 387.306 161.833 396.76 161.833 L 396.76 161.833 L 396.76 161.833 Q 405.279 161.833 410.369 155.362 L 410.369 155.362 L 410.369 155.362 Q 415.46 148.89 415.46 135.417 L 415.46 135.417 L 415.46 135.417 Q 415.46 124.172 410.993 116.958 L 410.993 116.958 L 410.993 116.958 Q 406.525 109.744 397.072 109.744 L 397.072 109.744 L 397.072 109.744 Q 388.76 109.744 383.566 116.852 L 383.566 116.852 L 383.566 116.852 Q 378.372 123.96 378.372 136.054 Z  M 469.482 143.056 L 470.625 132.447 L 496.389 132.447 L 496.389 168.092 L 496.389 168.092 Q 492.337 170.32 486.623 171.858 L 486.623 171.858 L 486.623 171.858 Q 480.909 173.397 474.364 173.397 L 474.364 173.397 L 474.364 173.397 Q 457.846 173.397 449.587 162.523 L 449.587 162.523 L 449.587 162.523 Q 441.328 151.649 441.328 136.16 L 441.328 136.16 L 441.328 136.16 Q 441.328 119.716 450.678 109.002 L 450.678 109.002 L 450.678 109.002 Q 460.028 98.287 476.027 98.287 L 476.027 98.287 L 476.027 98.287 Q 479.143 98.287 484.909 99.348 L 484.909 99.348 L 484.909 99.348 Q 490.675 100.409 495.35 102.955 L 495.35 102.955 L 491.091 112.821 L 491.091 112.821 Q 486.519 111.442 483.663 110.646 L 483.663 110.646 L 483.663 110.646 Q 480.806 109.85 476.234 109.85 L 476.234 109.85 L 476.234 109.85 Q 466.885 109.85 461.119 116.375 L 461.119 116.375 L 461.119 116.375 Q 455.353 122.899 455.353 136.054 L 455.353 136.054 L 455.353 136.054 Q 455.353 147.936 460.08 154.884 L 460.08 154.884 L 460.08 154.884 Q 464.807 161.833 474.053 161.833 L 474.053 161.833 L 474.053 161.833 Q 477.481 161.833 479.974 161.462 L 479.974 161.462 L 479.974 161.462 Q 482.468 161.09 484.338 160.666 L 484.338 160.666 L 484.338 143.056 L 469.482 143.056 L 469.482 143.056 Z  M 533.996 111.23 L 533.996 111.23 L 525.685 111.23 L 525.685 133.296 L 534.204 133.296 L 534.204 133.296 Q 540.23 133.296 544.177 130.803 L 544.177 130.803 L 544.177 130.803 Q 548.125 128.31 548.125 122.581 L 548.125 122.581 L 548.125 122.581 Q 548.125 116.534 544.385 113.882 L 544.385 113.882 L 544.385 113.882 Q 540.645 111.23 533.996 111.23 Z  M 567.656 171.911 L 553.32 171.911 L 538.36 144.329 L 538.36 144.329 Q 537.217 144.435 535.97 144.488 L 535.97 144.488 L 535.97 144.488 Q 534.724 144.541 533.477 144.541 L 533.477 144.541 L 525.685 144.541 L 525.685 171.911 L 512.284 171.911 L 512.284 99.772 L 534.412 99.772 L 534.412 99.772 Q 545.944 99.772 554.151 105.183 L 554.151 105.183 L 554.151 105.183 Q 562.358 110.593 562.358 121.944 L 562.358 121.944 L 562.358 121.944 Q 562.358 128.628 558.982 133.455 L 558.982 133.455 L 558.982 133.455 Q 555.605 138.282 550.307 140.934 L 550.307 140.934 L 567.656 171.911 L 567.656 171.911 Z  M 611.705 143.798 L 602.251 118.656 L 593.005 143.798 L 611.705 143.798 L 611.705 143.798 Z  M 596.849 99.772 L 608.277 99.772 L 635.703 170.002 L 622.198 171.911 L 615.86 154.937 L 589.057 154.937 L 582.824 171.911 L 569.318 171.911 L 596.849 99.772 L 596.849 99.772 Z  M 680.583 149.315 L 675.389 150.057 L 658.455 127.885 L 658.455 171.911 L 645.053 171.911 L 645.053 99.772 L 653.572 99.772 L 677.466 133.083 L 699.179 99.772 L 707.386 99.772 L 707.386 171.911 L 693.777 171.911 L 693.777 130.325 L 680.583 149.315 L 680.583 149.315 Z  M 760.265 149.315 L 755.071 150.057 L 738.137 127.885 L 738.137 171.911 L 724.736 171.911 L 724.736 99.772 L 733.254 99.772 L 757.149 133.083 L 778.861 99.772 L 787.069 99.772 L 787.069 171.911 L 773.459 171.911 L 773.459 130.325 L 760.265 149.315 L 760.265 149.315 Z  M 804.418 99.772 L 817.82 99.772 L 817.82 171.911 L 804.418 171.911 L 804.418 99.772 L 804.418 99.772 Z  M 881.399 99.772 L 894.905 99.772 L 894.905 171.911 L 881.399 171.911 L 848.674 123.642 L 848.674 171.911 L 835.273 171.911 L 835.273 99.772 L 848.674 99.772 L 881.399 147.936 L 881.399 99.772 L 881.399 99.772 Z  M 937.707 143.056 L 938.85 132.447 L 964.614 132.447 L 964.614 168.092 L 964.614 168.092 Q 960.562 170.32 954.848 171.858 L 954.848 171.858 L 954.848 171.858 Q 949.134 173.397 942.589 173.397 L 942.589 173.397 L 942.589 173.397 Q 926.071 173.397 917.812 162.523 L 917.812 162.523 L 917.812 162.523 Q 909.553 151.649 909.553 136.16 L 909.553 136.16 L 909.553 136.16 Q 909.553 119.716 918.903 109.002 L 918.903 109.002 L 918.903 109.002 Q 928.253 98.287 944.252 98.287 L 944.252 98.287 L 944.252 98.287 Q 947.368 98.287 953.134 99.348 L 953.134 99.348 L 953.134 99.348 Q 958.9 100.409 963.575 102.955 L 963.575 102.955 L 959.316 112.821 L 959.316 112.821 Q 954.744 111.442 951.888 110.646 L 951.888 110.646 L 951.888 110.646 Q 949.031 109.85 944.459 109.85 L 944.459 109.85 L 944.459 109.85 Q 935.11 109.85 929.344 116.375 L 929.344 116.375 L 929.344 116.375 Q 923.578 122.899 923.578 136.054 L 923.578 136.054 L 923.578 136.054 Q 923.578 147.936 928.305 154.884 L 928.305 154.884 L 928.305 154.884 Q 933.032 161.833 942.278 161.833 L 942.278 161.833 L 942.278 161.833 Q 945.706 161.833 948.199 161.462 L 948.199 161.462 L 948.199 161.462 Q 950.693 161.09 952.563 160.666 L 952.563 160.666 L 952.563 143.056 L 937.707 143.056 L 937.707 143.056 Z " fill="rgb(0,0,0)"/><path d=" M 243.095 32.88 L 249.732 32.88 L 249.732 85.385 L 243.095 85.385 L 243.095 32.88 L 243.095 32.88 Z  M 281.457 43.828 L 281.457 43.828 Q 288.458 43.828 292.761 48.408 L 292.761 48.408 L 292.761 48.408 Q 297.064 52.988 297.064 61.627 L 297.064 61.627 L 297.064 85.385 L 290.427 85.385 L 290.427 62.223 L 290.427 62.223 Q 290.427 56.116 287.364 52.839 L 287.364 52.839 L 287.364 52.839 Q 284.301 49.563 279.05 49.563 L 279.05 49.563 L 279.05 49.563 Q 273.58 49.563 270.298 53.175 L 270.298 53.175 L 270.298 53.175 Q 267.016 56.787 267.016 63.713 L 267.016 63.713 L 267.016 85.385 L 260.38 85.385 L 260.38 44.498 L 267.016 44.498 L 267.016 54.18 L 267.016 54.18 Q 268.548 49.19 272.45 46.509 L 272.45 46.509 L 272.45 46.509 Q 276.352 43.828 281.457 43.828 L 281.457 43.828 L 281.457 43.828 Z  M 319.818 43.977 L 319.818 43.977 Q 326.601 43.977 330.721 47.589 L 330.721 47.589 L 330.721 47.589 Q 334.842 51.201 335.717 57.308 L 335.717 57.308 L 329.372 57.308 L 329.372 57.308 Q 328.935 53.659 326.418 51.313 L 326.418 51.313 L 326.418 51.313 Q 323.902 48.967 319.672 48.967 L 319.672 48.967 L 319.672 48.967 Q 316.099 48.967 314.093 50.717 L 314.093 50.717 L 314.093 50.717 Q 312.088 52.467 312.088 55.446 L 312.088 55.446 L 312.088 55.446 Q 312.088 57.68 313.437 59.058 L 313.437 59.058 L 313.437 59.058 Q 314.786 60.436 316.792 61.143 L 316.792 61.143 L 316.792 61.143 Q 318.797 61.851 322.298 62.67 L 322.298 62.67 L 322.298 62.67 Q 326.747 63.713 329.482 64.793 L 329.482 64.793 L 329.482 64.793 Q 332.216 65.872 334.149 68.256 L 334.149 68.256 L 334.149 68.256 Q 336.082 70.639 336.082 74.66 L 336.082 74.66 L 336.082 74.66 Q 336.082 79.65 332.399 82.778 L 332.399 82.778 L 332.399 82.778 Q 328.716 85.906 322.59 85.906 L 322.59 85.906 L 322.59 85.906 Q 315.442 85.906 310.921 82.406 L 310.921 82.406 L 310.921 82.406 Q 306.399 78.905 305.597 72.65 L 305.597 72.65 L 312.015 72.65 L 312.015 72.65 Q 312.379 76.373 315.187 78.682 L 315.187 78.682 L 315.187 78.682 Q 317.995 80.991 322.59 80.991 L 322.59 80.991 L 322.59 80.991 Q 326.017 80.991 327.95 79.203 L 327.95 79.203 L 327.95 79.203 Q 329.883 77.416 329.883 74.511 L 329.883 74.511 L 329.883 74.511 Q 329.883 72.128 328.497 70.713 L 328.497 70.713 L 328.497 70.713 Q 327.111 69.298 325.069 68.553 L 325.069 68.553 L 325.069 68.553 Q 323.027 67.809 319.454 66.99 L 319.454 66.99 L 319.454 66.99 Q 315.005 65.947 312.343 64.904 L 312.343 64.904 L 312.343 64.904 Q 309.681 63.862 307.821 61.59 L 307.821 61.59 L 307.821 61.59 Q 305.961 59.319 305.961 55.446 L 305.961 55.446 L 305.961 55.446 Q 305.961 50.307 309.681 47.142 L 309.681 47.142 L 309.681 47.142 Q 313.4 43.977 319.818 43.977 L 319.818 43.977 L 319.818 43.977 Z  M 360.003 79.427 L 364.087 79.427 L 364.087 85.385 L 359.128 85.385 L 359.128 85.385 Q 353.002 85.385 349.975 82.406 L 349.975 82.406 L 349.975 82.406 Q 346.948 79.427 346.948 72.426 L 346.948 72.426 L 346.948 50.382 L 340.968 50.382 L 340.968 44.498 L 346.948 44.498 L 346.948 34.295 L 353.658 34.295 L 353.658 44.498 L 364.014 44.498 L 364.014 50.382 L 353.658 50.382 L 353.658 72.575 L 353.658 72.575 Q 353.658 76.522 355.08 77.974 L 355.08 77.974 L 355.08 77.974 Q 356.502 79.427 360.003 79.427 L 360.003 79.427 L 360.003 79.427 Z  M 378.819 52.765 L 378.819 52.765 Q 380.788 48.52 384.581 46.174 L 384.581 46.174 L 384.581 46.174 Q 388.373 43.828 393.624 43.828 L 393.624 43.828 L 393.624 51.201 L 391.582 51.201 L 391.582 51.201 Q 385.966 51.201 382.393 54.143 L 382.393 54.143 L 382.393 54.143 Q 378.819 57.084 378.819 63.862 L 378.819 63.862 L 378.819 85.385 L 372.182 85.385 L 372.182 44.498 L 378.819 44.498 L 378.819 52.765 L 378.819 52.765 Z  M 429.141 44.498 L 435.778 44.498 L 435.778 85.385 L 429.141 85.385 L 429.141 75.777 L 429.141 75.777 Q 427.61 80.767 423.708 83.411 L 423.708 83.411 L 423.708 83.411 Q 419.806 86.055 414.628 86.055 L 414.628 86.055 L 414.628 86.055 Q 407.7 86.055 403.397 81.475 L 403.397 81.475 L 403.397 81.475 Q 399.094 76.895 399.094 68.33 L 399.094 68.33 L 399.094 44.498 L 405.731 44.498 L 405.731 67.66 L 405.731 67.66 Q 405.731 73.767 408.794 77.081 L 408.794 77.081 L 408.794 77.081 Q 411.857 80.395 417.108 80.395 L 417.108 80.395 L 417.108 80.395 Q 422.578 80.395 425.859 76.783 L 425.859 76.783 L 425.859 76.783 Q 429.141 73.171 429.141 66.245 L 429.141 66.245 L 429.141 44.498 L 429.141 44.498 Z  M 464.148 43.977 L 464.148 43.977 Q 471.806 43.977 476.838 48.148 L 476.838 48.148 L 476.838 48.148 Q 481.87 52.318 483.037 59.319 L 483.037 59.319 L 476.036 59.319 L 476.036 59.319 Q 475.306 54.925 472.061 52.43 L 472.061 52.43 L 472.061 52.43 Q 468.816 49.935 464.002 49.935 L 464.002 49.935 L 464.002 49.935 Q 460.501 49.935 457.621 51.573 L 457.621 51.573 L 457.621 51.573 Q 454.74 53.212 452.99 56.6 L 452.99 56.6 L 452.99 56.6 Q 451.239 59.989 451.239 64.979 L 451.239 64.979 L 451.239 64.979 Q 451.239 69.968 452.99 73.357 L 452.99 73.357 L 452.99 73.357 Q 454.74 76.746 457.621 78.384 L 457.621 78.384 L 457.621 78.384 Q 460.501 80.022 464.002 80.022 L 464.002 80.022 L 464.002 80.022 Q 468.816 80.022 472.061 77.49 L 472.061 77.49 L 472.061 77.49 Q 475.306 74.958 476.036 70.564 L 476.036 70.564 L 483.037 70.564 L 483.037 70.564 Q 481.87 77.639 476.838 81.773 L 476.838 81.773 L 476.838 81.773 Q 471.806 85.906 464.148 85.906 L 464.148 85.906 L 464.148 85.906 Q 458.386 85.906 453.938 83.374 L 453.938 83.374 L 453.938 83.374 Q 449.489 80.842 446.973 76.113 L 446.973 76.113 L 446.973 76.113 Q 444.457 71.383 444.457 64.979 L 444.457 64.979 L 444.457 64.979 Q 444.457 58.574 446.973 53.808 L 446.973 53.808 L 446.973 53.808 Q 449.489 49.041 453.938 46.509 L 453.938 46.509 L 453.938 46.509 Q 458.386 43.977 464.148 43.977 L 464.148 43.977 L 464.148 43.977 Z  M 506.739 79.427 L 510.824 79.427 L 510.824 85.385 L 505.864 85.385 L 505.864 85.385 Q 499.738 85.385 496.711 82.406 L 496.711 82.406 L 496.711 82.406 Q 493.685 79.427 493.685 72.426 L 493.685 72.426 L 493.685 50.382 L 487.705 50.382 L 487.705 44.498 L 493.685 44.498 L 493.685 34.295 L 500.394 34.295 L 500.394 44.498 L 510.751 44.498 L 510.751 50.382 L 500.394 50.382 L 500.394 72.575 L 500.394 72.575 Q 500.394 76.522 501.817 77.974 L 501.817 77.974 L 501.817 77.974 Q 503.239 79.427 506.739 79.427 L 506.739 79.427 L 506.739 79.427 Z  M 517.752 32.508 L 517.752 32.508 Q 517.752 30.646 518.992 29.492 L 518.992 29.492 L 518.992 29.492 Q 520.232 28.337 522.274 28.337 L 522.274 28.337 L 522.274 28.337 Q 524.316 28.337 525.556 29.492 L 525.556 29.492 L 525.556 29.492 Q 526.795 30.646 526.795 32.508 L 526.795 32.508 L 526.795 32.508 Q 526.795 34.37 525.556 35.524 L 525.556 35.524 L 525.556 35.524 Q 524.316 36.679 522.274 36.679 L 522.274 36.679 L 522.274 36.679 Q 520.232 36.679 518.992 35.524 L 518.992 35.524 L 518.992 35.524 Q 517.752 34.37 517.752 32.508 L 517.752 32.508 L 517.752 32.508 Z  M 518.919 44.498 L 525.556 44.498 L 525.556 85.385 L 518.919 85.385 L 518.919 44.498 L 518.919 44.498 Z  M 554.363 43.977 L 554.363 43.977 Q 560.125 43.977 564.683 46.509 L 564.683 46.509 L 564.683 46.509 Q 569.241 49.041 571.83 53.808 L 571.83 53.808 L 571.83 53.808 Q 574.419 58.574 574.419 64.979 L 574.419 64.979 L 574.419 64.979 Q 574.419 71.383 571.83 76.113 L 571.83 76.113 L 571.83 76.113 Q 569.241 80.842 564.683 83.374 L 564.683 83.374 L 564.683 83.374 Q 560.125 85.906 554.363 85.906 L 554.363 85.906 L 554.363 85.906 Q 548.602 85.906 544.043 83.374 L 544.043 83.374 L 544.043 83.374 Q 539.485 80.842 536.86 76.113 L 536.86 76.113 L 536.86 76.113 Q 534.234 71.383 534.234 64.979 L 534.234 64.979 L 534.234 64.979 Q 534.234 58.574 536.86 53.808 L 536.86 53.808 L 536.86 53.808 Q 539.485 49.041 544.043 46.509 L 544.043 46.509 L 544.043 46.509 Q 548.602 43.977 554.363 43.977 L 554.363 43.977 L 554.363 43.977 Z  M 554.363 49.935 L 554.363 49.935 Q 550.79 49.935 547.763 51.573 L 547.763 51.573 L 547.763 51.573 Q 544.736 53.212 542.877 56.6 L 542.877 56.6 L 542.877 56.6 Q 541.017 59.989 541.017 64.979 L 541.017 64.979 L 541.017 64.979 Q 541.017 69.894 542.877 73.283 L 542.877 73.283 L 542.877 73.283 Q 544.736 76.671 547.763 78.31 L 547.763 78.31 L 547.763 78.31 Q 550.79 79.948 554.363 79.948 L 554.363 79.948 L 554.363 79.948 Q 557.937 79.948 560.963 78.31 L 560.963 78.31 L 560.963 78.31 Q 563.99 76.671 565.85 73.283 L 565.85 73.283 L 565.85 73.283 Q 567.709 69.894 567.709 64.979 L 567.709 64.979 L 567.709 64.979 Q 567.709 59.989 565.85 56.6 L 565.85 56.6 L 565.85 56.6 Q 563.99 53.212 560.963 51.573 L 560.963 51.573 L 560.963 51.573 Q 557.937 49.935 554.363 49.935 L 554.363 49.935 L 554.363 49.935 Z  M 604.175 43.828 L 604.175 43.828 Q 611.176 43.828 615.479 48.408 L 615.479 48.408 L 615.479 48.408 Q 619.782 52.988 619.782 61.627 L 619.782 61.627 L 619.782 85.385 L 613.145 85.385 L 613.145 62.223 L 613.145 62.223 Q 613.145 56.116 610.082 52.839 L 610.082 52.839 L 610.082 52.839 Q 607.019 49.563 601.768 49.563 L 601.768 49.563 L 601.768 49.563 Q 596.298 49.563 593.016 53.175 L 593.016 53.175 L 593.016 53.175 Q 589.734 56.787 589.734 63.713 L 589.734 63.713 L 589.734 85.385 L 583.098 85.385 L 583.098 44.498 L 589.734 44.498 L 589.734 54.18 L 589.734 54.18 Q 591.266 49.19 595.168 46.509 L 595.168 46.509 L 595.168 46.509 Q 599.07 43.828 604.175 43.828 L 604.175 43.828 L 604.175 43.828 Z  M 646.402 43.977 L 646.402 43.977 Q 652.236 43.977 656.284 46.956 L 656.284 46.956 L 656.284 46.956 Q 660.331 49.935 661.936 54.925 L 661.936 54.925 L 661.936 44.498 L 668.572 44.498 L 668.572 85.385 L 661.936 85.385 L 661.936 74.958 L 661.936 74.958 Q 660.331 79.948 656.284 82.927 L 656.284 82.927 L 656.284 82.927 Q 652.236 85.906 646.402 85.906 L 646.402 85.906 L 646.402 85.906 Q 641.078 85.906 636.921 83.374 L 636.921 83.374 L 636.921 83.374 Q 632.764 80.842 630.393 76.113 L 630.393 76.113 L 630.393 76.113 Q 628.023 71.383 628.023 64.979 L 628.023 64.979 L 628.023 64.979 Q 628.023 58.574 630.393 53.808 L 630.393 53.808 L 630.393 53.808 Q 632.764 49.041 636.921 46.509 L 636.921 46.509 L 636.921 46.509 Q 641.078 43.977 646.402 43.977 L 646.402 43.977 L 646.402 43.977 Z  M 648.298 50.009 L 648.298 50.009 Q 642.172 50.009 638.489 53.994 L 638.489 53.994 L 638.489 53.994 Q 634.806 57.978 634.806 64.979 L 634.806 64.979 L 634.806 64.979 Q 634.806 71.979 638.489 75.964 L 638.489 75.964 L 638.489 75.964 Q 642.172 79.948 648.298 79.948 L 648.298 79.948 L 648.298 79.948 Q 652.236 79.948 655.336 78.086 L 655.336 78.086 L 655.336 78.086 Q 658.435 76.224 660.185 72.836 L 660.185 72.836 L 660.185 72.836 Q 661.936 69.447 661.936 64.979 L 661.936 64.979 L 661.936 64.979 Q 661.936 60.51 660.185 57.084 L 660.185 57.084 L 660.185 57.084 Q 658.435 53.659 655.336 51.834 L 655.336 51.834 L 655.336 51.834 Q 652.236 50.009 648.298 50.009 L 648.298 50.009 L 648.298 50.009 Z  M 679.147 30.274 L 685.784 30.274 L 685.784 85.385 L 679.147 85.385 L 679.147 30.274 L 679.147 30.274 Z " fill="rgb(0,0,0)"/></g><mask id="_mask_p64D9VwEe3ci0fCzGx6Y4MDPAfh8d48w"><path d=" M 64 5.187 L 195.068 5.187 C 211.073 5.187 224.068 18.181 224.068 34.187 L 224.068 165.255 C 224.068 181.26 211.073 194.255 195.068 194.255 L 64 194.255 C 47.994 194.255 35 181.26 35 165.255 L 35 34.187 C 35 18.181 47.994 5.187 64 5.187 Z " fill="white" stroke="none"/></mask><path d=" M 64 5.187 L 195.068 5.187 C 211.073 5.187 224.068 18.181 224.068 34.187 L 224.068 165.255 C 224.068 181.26 211.073 194.255 195.068 194.255 L 64 194.255 C 47.994 194.255 35 181.26 35 165.255 L 35 34.187 C 35 18.181 47.994 5.187 64 5.187 Z " fill="rgb(191,231,249)"/><path d=" M 64 5.187 L 195.068 5.187 C 211.073 5.187 224.068 18.181 224.068 34.187 L 224.068 165.255 C 224.068 181.26 211.073 194.255 195.068 194.255 L 64 194.255 C 47.994 194.255 35 181.26 35 165.255 L 35 34.187 C 35 18.181 47.994 5.187 64 5.187 Z " fill="rgb(191,231,249)" mask="url(#_mask_p64D9VwEe3ci0fCzGx6Y4MDPAfh8d48w)" vector-effect="non-scaling-stroke" stroke-width="7.319" stroke="rgb(179,216,234)" stroke-linejoin="miter" stroke-linecap="square" stroke-miterlimit="3"/><g><mask id="_mask_LTYJ7iwXqubovwuatygo5wJT2e8Wze2z"><path d=" M 136.853 130.825 L 145.493 130.825 L 154.133 130.825 L 154.133 163.76 L 145.493 157.719 L 136.853 163.76 L 136.853 130.825 Z " fill="white" stroke="none"/></mask><path d=" M 136.853 130.825 L 145.493 130.825 L 154.133 130.825 L 154.133 163.76 L 145.493 157.719 L 136.853 163.76 L 136.853 130.825 Z " fill="rgb(230,91,91)"/><path d=" M 136.853 130.825 L 145.493 130.825 L 154.133 130.825 L 154.133 163.76 L 145.493 157.719 L 136.853 163.76 L 136.853 130.825 Z " fill="rgb(230,91,91)" mask="url(#_mask_LTYJ7iwXqubovwuatygo5wJT2e8Wze2z)" vector-effect="non-scaling-stroke" stroke-width="7.319" stroke="rgb(204,82,82)" stroke-linejoin="round" stroke-linecap="round" stroke-miterlimit="3"/><g><mask id="_mask_4OHbBWmWwEmyG0ArUXxdusfi1UUdq3n9"><path d=" M 78.744 47.937 L 125.433 52.701 C 129.043 53.07 131.973 56.315 131.973 59.943 L 131.973 139.498 C 131.973 143.127 129.043 145.774 125.433 145.405 L 78.744 140.641 C 75.134 140.273 72.204 137.028 72.204 133.399 L 72.204 53.844 C 72.204 50.216 75.134 47.569 78.744 47.937 Z " fill="white" stroke="none"/></mask><path d=" M 78.744 47.937 L 125.433 52.701 C 129.043 53.07 131.973 56.315 131.973 59.943 L 131.973 139.498 C 131.973 143.127 129.043 145.774 125.433 145.405 L 78.744 140.641 C 75.134 140.273 72.204 137.028 72.204 133.399 L 72.204 53.844 C 72.204 50.216 75.134 47.569 78.744 47.937 Z " fill="rgb(251,251,251)"/><path d=" M 78.744 47.937 L 125.433 52.701 C 129.043 53.07 131.973 56.315 131.973 59.943 L 131.973 139.498 C 131.973 143.127 129.043 145.774 125.433 145.405 L 78.744 140.641 C 75.134 140.273 72.204 137.028 72.204 133.399 L 72.204 53.844 C 72.204 50.216 75.134 47.569 78.744 47.937 Z " fill="rgb(251,251,251)" mask="url(#_mask_4OHbBWmWwEmyG0ArUXxdusfi1UUdq3n9)" vector-effect="non-scaling-stroke" stroke-width="9.758" stroke="rgb(104,104,104)" stroke-linejoin="miter" stroke-linecap="square" stroke-miterlimit="3"/><mask id="_mask_K72MvM8yRz3CTh1zN9JgMj0aLafssvTG"><path d=" M 133.635 52.701 L 180.323 47.937 C 183.933 47.569 186.864 50.216 186.864 53.844 L 186.864 133.399 C 186.864 137.028 183.933 140.273 180.323 140.641 L 133.635 145.405 C 130.025 145.774 127.094 143.127 127.094 139.498 L 127.094 59.943 C 127.094 56.315 130.025 53.07 133.635 52.701 Z " fill="white" stroke="none"/></mask><path d=" M 133.635 52.701 L 180.323 47.937 C 183.933 47.569 186.864 50.216 186.864 53.844 L 186.864 133.399 C 186.864 137.028 183.933 140.273 180.323 140.641 L 133.635 145.405 C 130.025 145.774 127.094 143.127 127.094 139.498 L 127.094 59.943 C 127.094 56.315 130.025 53.07 133.635 52.701 Z " fill="rgb(251,251,251)"/><path d=" M 133.635 52.701 L 180.323 47.937 C 183.933 47.569 186.864 50.216 186.864 53.844 L 186.864 133.399 C 186.864 137.028 183.933 140.273 180.323 140.641 L 133.635 145.405 C 130.025 145.774 127.094 143.127 127.094 139.498 L 127.094 59.943 C 127.094 56.315 130.025 53.07 133.635 52.701 Z " fill="rgb(251,251,251)" mask="url(#_mask_K72MvM8yRz3CTh1zN9JgMj0aLafssvTG)" vector-effect="non-scaling-stroke" stroke-width="9.758" stroke="rgb(104,104,104)" stroke-linejoin="miter" stroke-linecap="square" stroke-miterlimit="3"/><g><line x1="84.478" y1="71.492" x2="119.699" y2="75.194" vector-effect="non-scaling-stroke" stroke-width="4.879" stroke="rgb(104,104,104)" stroke-linejoin="round" stroke-linecap="round" stroke-miterlimit="3"/><line x1="84.478" y1="101.783" x2="119.699" y2="105.485" vector-effect="non-scaling-stroke" stroke-width="4.879" stroke="rgb(104,104,104)" stroke-linejoin="round" stroke-linecap="round" stroke-miterlimit="3"/><line x1="84.478" y1="86.637" x2="111.694" y2="89.498" vector-effect="non-scaling-stroke" stroke-width="4.879" stroke="rgb(104,104,104)" stroke-linejoin="round" stroke-linecap="round" stroke-miterlimit="3"/><line x1="84.478" y1="116.929" x2="117.183" y2="120.366" vector-effect="non-scaling-stroke" stroke-width="4.879" stroke="rgb(104,104,104)" stroke-linejoin="round" stroke-linecap="round" stroke-miterlimit="3"/></g><g><g><line x1="139.368" y1="120.631" x2="174.59" y2="116.929" vector-effect="non-scaling-stroke" stroke-width="4.879" stroke="rgb(104,104,104)" stroke-linejoin="round" stroke-linecap="round" stroke-miterlimit="3"/><line x1="139.368" y1="90.339" x2="174.59" y2="86.637" vector-effect="non-scaling-stroke" stroke-width="4.879" stroke="rgb(104,104,104)" stroke-linejoin="round" stroke-linecap="round" stroke-miterlimit="3"/><line x1="139.368" y1="105.485" x2="166.585" y2="102.625" vector-effect="non-scaling-stroke" stroke-width="4.879" stroke="rgb(104,104,104)" stroke-linejoin="round" stroke-linecap="round" stroke-miterlimit="3"/><line x1="139.368" y1="75.194" x2="172.074" y2="71.756" vector-effect="non-scaling-stroke" stroke-width="4.879" stroke="rgb(104,104,104)" stroke-linejoin="round" stroke-linecap="round" stroke-miterlimit="3"/></g></g></g></g></g></svg>