<?xml version="1.0" standalone="no"?>
<!DOCTYPE svg PUBLIC "-//W3C//DTD SVG 20010904//EN"
 "http://www.w3.org/TR/2001/REC-SVG-20010904/DTD/svg10.dtd">
<svg version="1.0" xmlns="http://www.w3.org/2000/svg"
 width="1000.000000pt" height="1000.000000pt" viewBox="0 0 1000.000000 1000.000000"
 preserveAspectRatio="xMidYMid meet">
<metadata>
Created by potrace 1.14, written by Peter Selinger 2001-2017
</metadata>
<g transform="translate(0.000000,1000.000000) scale(0.100000,-0.100000)"
fill="#000000" stroke="none">
<path d="M2183 7726 c-62 -20 -106 -51 -146 -102 -73 -93 -67 101 -65 -2319
l3 -2180 27 -58 c54 -115 169 -205 291 -228 95 -17 2410 -251 2507 -252 84 -2
101 1 148 24 l52 26 52 -26 c46 -22 65 -26 143 -25 49 0 114 3 143 7 l52 8 0
-495 0 -495 218 152 c119 84 222 156 228 160 6 3 112 -65 235 -152 l224 -159
3 539 2 538 33 6 c17 3 322 34 677 70 355 35 669 69 697 74 122 23 237 113
291 228 l27 58 3 2180 c2 2433 9 2226 -69 2324 -51 64 -125 102 -211 108 -81
6 -2498 -240 -2587 -263 -35 -9 -85 -32 -112 -50 l-49 -33 -49 33 c-27 18 -77
41 -112 50 -66 17 -2480 267 -2566 265 -27 0 -67 -6 -90 -13z m1356 -371
c1337 -136 1276 -127 1313 -196 17 -32 18 -128 18 -2161 0 -1920 -2 -2128 -16
-2142 -8 -9 -22 -16 -30 -16 -63 0 -2478 252 -2509 262 -25 8 -48 25 -62 47
l-23 34 0 2136 c0 1649 3 2140 12 2149 7 7 25 12 41 12 16 0 581 -56 1256
-125z m4219 113 c9 -9 12 -500 12 -2149 l0 -2136 -23 -34 c-14 -22 -37 -39
-62 -47 -31 -10 -2446 -262 -2509 -262 -8 0 -22 7 -30 16 -14 14 -16 222 -16
2142 0 2033 1 2129 18 2161 37 69 -22 60 1292 195 663 68 1228 124 1256 125
27 0 55 -4 62 -11z"/>
<path d="M2529 6581 c-33 -33 -39 -45 -39 -81 0 -60 30 -105 83 -124 25 -9
420 -54 985 -112 902 -93 944 -97 977 -81 48 23 70 61 69 121 0 43 -5 53 -36
81 -22 20 -50 35 -74 39 -81 13 -1841 196 -1883 196 -37 0 -49 -6 -82 -39z"/>
<path d="M2554 5801 c-45 -27 -64 -59 -64 -107 0 -56 34 -105 85 -122 22 -7
368 -46 769 -88 716 -73 729 -74 764 -57 70 35 95 110 59 179 -30 59 -30 59
-807 139 -400 41 -737 75 -750 75 -14 0 -39 -9 -56 -19z"/>
<path d="M2554 5001 c-45 -27 -64 -59 -64 -107 0 -56 34 -105 85 -122 40 -13
1827 -202 1909 -202 133 0 170 194 46 242 -22 8 -1862 208 -1920 208 -14 0
-39 -9 -56 -19z"/>
<path d="M2565 4206 c-46 -21 -67 -51 -72 -103 -5 -59 22 -108 70 -127 17 -8
430 -55 917 -106 l885 -93 39 18 c53 25 82 87 66 144 -12 44 -55 86 -97 95
-26 5 -1755 186 -1771 186 -4 -1 -20 -7 -37 -14z"/>
<path d="M6349 6515 c-476 -51 -874 -97 -885 -103 -45 -24 -68 -61 -68 -110
-1 -58 21 -96 69 -119 33 -16 74 -12 927 76 586 61 902 98 920 107 92 48 84
189 -12 228 -22 9 -50 15 -63 15 -12 -1 -412 -43 -888 -94z"/>
<path d="M6404 5720 c-506 -53 -929 -102 -940 -108 -119 -64 -76 -242 58 -242
77 0 1865 190 1903 202 51 17 85 66 85 123 0 73 -61 126 -142 124 -24 -1 -457
-45 -964 -99z"/>
<path d="M6230 4900 c-393 -42 -729 -80 -746 -84 -17 -4 -43 -19 -57 -34 -74
-80 -19 -212 89 -212 24 0 366 34 759 75 504 52 724 79 745 90 107 55 76 220
-45 238 -16 3 -352 -30 -745 -73z"/>
<path d="M6430 4120 c-503 -53 -929 -100 -946 -104 -73 -16 -113 -107 -77
-175 27 -52 64 -75 120 -73 99 2 1860 192 1898 204 57 19 88 68 82 131 -2 27
-12 56 -23 68 -24 28 -75 49 -111 48 -15 -1 -440 -45 -943 -99z"/>
</g>
</svg>
